<?xml version="1.0" encoding="UTF-8"?>
<svg version="1.1" xmlns="http://www.w3.org/2000/svg" width="512" height="512">
<path d="M0 0 C0.79536163 0.00215515 1.59072327 0.0043103 2.41018677 0.00653076 C13.94743823 0.05670597 25.02679237 0.42226878 36.25 3.3125 C37.0529248 3.50585938 37.85584961 3.69921875 38.68310547 3.8984375 C81.79990293 14.41591718 118.49892608 41.44703177 141.66503906 79.25952148 C150.85389815 94.81347951 157.30595548 111.69423912 161.25 129.3125 C161.49556641 130.40739746 161.49556641 130.40739746 161.74609375 131.52441406 C166.35738594 153.31372242 166.44753908 178.65375226 161.25 200.3125 C160.95198486 201.56498535 160.95198486 201.56498535 160.64794922 202.84277344 C153.31111665 232.66273862 138.48428767 258.27312085 117.25 280.3125 C116.67121094 280.94285156 116.09242188 281.57320313 115.49609375 282.22265625 C106.67250777 291.57698425 95.31206236 299.83488295 84.25 306.3125 C83.59 306.3125 82.93 306.3125 82.25 306.3125 C82.25888245 307.10097321 82.26776489 307.88944641 82.2769165 308.70181274 C82.35719148 316.14627813 82.41802949 323.59053253 82.45724869 331.03531837 C82.47808989 334.86243842 82.506343 338.68919969 82.55175781 342.51611328 C82.59534101 346.2119739 82.61916318 349.90749026 82.62950897 353.6035881 C82.63687813 355.01097403 82.65126863 356.41834193 82.67292023 357.8255806 C82.70211392 359.80231471 82.70363525 361.77939804 82.70410156 363.75634766 C82.71298401 364.87997711 82.72186646 366.00360657 82.73101807 367.1612854 C81.91642053 372.49782436 79.48830195 375.30728117 75.364151 378.65515137 C69.81794592 381.4862311 63.49161091 380.86779789 57.42358398 380.83007812 C56.02343011 380.83550444 54.62328196 380.84262995 53.22314453 380.85131836 C49.43594339 380.8694928 45.64918002 380.86250929 41.86197162 380.84980202 C37.89161711 380.83964568 33.92129904 380.8490748 29.95094299 380.85534668 C23.2856679 380.8626146 16.62057037 380.85305706 9.95532227 380.83398438 C2.25654237 380.81220822 -5.4418139 380.81927563 -13.14058357 380.84129 C-19.75990879 380.85945782 -26.37910669 380.86199587 -32.99844879 380.85153532 C-36.94788966 380.84530909 -40.89713155 380.84444081 -44.84655952 380.85768127 C-48.55924128 380.86925976 -52.2713781 380.86117833 -55.98400116 380.83810425 C-57.991417 380.83031694 -59.99887908 380.84215537 -62.00627136 380.85461426 C-73.2160008 380.74936829 -73.2160008 380.74936829 -77.75 376.3125 C-81.25604813 372.06893882 -82.24732841 369.22454353 -82.20410156 363.75634766 C-82.20379944 362.47547272 -82.20349731 361.19459778 -82.20318604 359.87490845 C-82.18276412 358.49212002 -82.16190021 357.10933806 -82.140625 355.7265625 C-82.13315674 354.3002502 -82.12746657 352.87392758 -82.12347412 351.44760132 C-82.10826348 347.70895638 -82.06902257 343.97094143 -82.0246582 340.23254395 C-81.98360585 336.41162638 -81.96544196 332.59060618 -81.9453125 328.76953125 C-81.9025226 321.28356819 -81.83432835 313.79812265 -81.75 306.3125 C-82.52545166 306.00940918 -83.30090332 305.70631836 -84.09985352 305.39404297 C-114.77847657 292.87388635 -139.49060884 257.80818908 -151.94140625 228.31201172 C-158.8231563 211.29464067 -163.84383826 192.59897111 -163.953125 174.16796875 C-163.95882507 173.39930984 -163.96452515 172.63065094 -163.97039795 171.83869934 C-163.97980054 170.21417594 -163.98636295 168.58963388 -163.99023438 166.96508789 C-163.99982284 164.54471887 -164.03084121 162.12524423 -164.0625 159.70507812 C-164.16207708 145.19162568 -162.38612599 131.06583052 -158 117.1875 C-157.74395996 116.35968018 -157.48791992 115.53186035 -157.22412109 114.67895508 C-154.65300025 106.60991307 -151.44521242 98.92538568 -147.75 91.3125 C-147.45399902 90.69068848 -147.15799805 90.06887695 -146.85302734 89.42822266 C-139.80894591 74.7958655 -129.97073615 62.00628573 -118.75 50.3125 C-117.87214844 49.37148437 -116.99429688 48.43046875 -116.08984375 47.4609375 C-96.17166074 26.4911946 -70.14743022 12.63204772 -42.4375 4.9375 C-41.57930664 4.69870117 -40.72111328 4.45990234 -39.83691406 4.21386719 C-26.62623738 0.75213887 -13.5757694 -0.06629677 0 0 Z " fill="#FBBB03" transform="translate(255.75,31.6875)"/>
<path d="M0 0 C1.06011292 -0.00281982 2.12022583 -0.00563965 3.21246338 -0.00854492 C4.97200348 -0.00550858 4.97200348 -0.00550858 6.76708984 -0.00241089 C7.99457947 -0.00416321 9.22206909 -0.00591553 10.48675537 -0.00772095 C13.86271013 -0.01137919 17.23860396 -0.010506 20.61455536 -0.00734186 C24.14017318 -0.00481792 27.66578833 -0.00715589 31.19140625 -0.00872803 C37.11312327 -0.01054962 43.03482784 -0.00814367 48.95654297 -0.00338745 C55.81219544 0.00205515 62.66781818 0.00029249 69.52346992 -0.00521386 C75.39946816 -0.00974527 81.27545742 -0.0103954 87.15145683 -0.00777519 C90.66536827 -0.00621257 94.17926572 -0.00601823 97.69317627 -0.00931168 C101.60845098 -0.01272468 105.52369211 -0.00800019 109.43896484 -0.00241089 C110.61199158 -0.00443512 111.78501831 -0.00645935 112.99359131 -0.00854492 C114.58376068 -0.00431519 114.58376068 -0.00431519 116.20605469 0 C117.1330014 0.00037703 118.05994812 0.00075405 119.01498413 0.0011425 C121.10302734 0.12698364 121.10302734 0.12698364 122.10302734 1.12698364 C122.4132709 5.18154597 122.38155831 9.24952219 122.41552734 13.31448364 C122.44453125 14.4520813 122.47353516 15.58967896 122.50341797 16.76174927 C122.54015828 21.60299176 122.50820753 25.21757922 120.52099609 29.67776489 C115.25220169 35.01465357 110.83382361 36.57742034 103.50837708 36.6690979 C102.54244125 36.66100098 101.57650543 36.65290405 100.58129883 36.64456177 C99.02877411 36.65507568 99.02877411 36.65507568 97.44488525 36.665802 C94.03768766 36.6833482 90.63132653 36.67177149 87.22412109 36.65823364 C84.84953146 36.6609293 82.47494291 36.66481234 80.10035706 36.66983032 C75.12986719 36.67572065 70.15966532 36.66717625 65.18920898 36.64846802 C58.82135088 36.62566677 52.45416673 36.6388126 46.08633327 36.66275787 C41.18523589 36.67721753 36.28429809 36.6726092 31.38319588 36.6622467 C29.03526797 36.65958055 26.68732552 36.66284522 24.3394146 36.67216492 C21.0576734 36.68233417 17.77702149 36.66682332 14.49536133 36.64456177 C13.52740128 36.65265869 12.55944122 36.66075562 11.56214905 36.6690979 C5.89386016 36.59793693 2.58777701 35.93486595 -1.89697266 32.12698364 C-6.4380836 27.40513196 -6.34465352 22.99314821 -6.29736328 16.76174927 C-6.26835937 15.62415161 -6.23935547 14.48655396 -6.20947266 13.31448364 C-6.19980469 12.15755005 -6.19013672 11.00061646 -6.18017578 9.80862427 C-6.04773786 0.00245985 -6.04773786 0.00245985 0 0 Z " fill="#FBBB03" transform="translate(197.89697265625,443.8730163574219)"/>
</svg>
