<svg width="800px" height="800px" viewBox="0 0 24 24" fill="none" xmlns="http://www.w3.org/2000/svg">
<path d="M12.0003 9.5C13.3813 9.5 14.5003 10.619 14.5003 12C14.5003 13.381 13.3813 14.5 12.0003 14.5C10.6193 14.5 9.50026 13.381 9.50026 12C9.50026 10.619 10.6193 9.5 12.0003 9.5Z" fill="#4285F4"/>
<path d="M12.0003 4.5C7.85726 4.5 4.50026 7.857 4.50026 12C4.50026 16.143 7.85726 19.5 12.0003 19.5C16.1433 19.5 19.5003 16.143 19.5003 12C19.5003 7.857 16.1433 4.5 12.0003 4.5ZM12.0003 17.5C8.96226 17.5 6.50026 15.038 6.50026 12C6.50026 8.962 8.96226 6.5 12.0003 6.5C15.0383 6.5 17.5003 8.962 17.5003 12C17.5003 15.038 15.0383 17.5 12.0003 17.5Z" fill="#4285F4"/>
<path d="M12.0003 4.5C12.0003 4.5 12.0003 4.5 12.0003 4.5V6.5C12.0003 6.5 12.0003 6.5 12.0003 6.5C15.0383 6.5 17.5003 8.962 17.5003 12C17.5003 12 17.5003 12 17.5003 12H19.5003C19.5003 12 19.5003 12 19.5003 12C19.5003 7.857 16.1433 4.5 12.0003 4.5Z" fill="#EA4335"/>
<path d="M12.0003 19.5C12.0003 19.5 12.0003 19.5 12.0003 19.5V17.5C12.0003 17.5 12.0003 17.5 12.0003 17.5C8.96226 17.5 6.50026 15.038 6.50026 12C6.50026 12 6.50026 12 6.50026 12H4.50026C4.50026 12 4.50026 12 4.50026 12C4.50026 16.143 7.85726 19.5 12.0003 19.5Z" fill="#34A853"/>
<path d="M19.5003 12C19.5003 12 19.5003 12 19.5003 12H17.5003C17.5003 12 17.5003 12 17.5003 12C17.5003 15.038 15.0383 17.5 12.0003 17.5C12.0003 17.5 12.0003 17.5 12.0003 17.5V19.5C12.0003 19.5 12.0003 19.5 12.0003 19.5C16.1433 19.5 19.5003 16.143 19.5003 12Z" fill="#FBBC04"/>
</svg>